<svg width="53" height="48" viewBox="0 0 53 48" fill="none" xmlns="http://www.w3.org/2000/svg">
<g clip-path="url(#clip0_348_175097)">
<path d="M52.8313 0H28.2014L30.1892 20.6714H22.707L24.6949 0H0.0649414L2.39968 24L0.0649414 48H23.9254L19.6232 30.5576L26.4496 31.8634L33.276 30.5576L28.9738 48H52.8342L50.4995 24L52.8342 0H52.8313ZM12.3799 17.2774C9.39517 17.2774 6.97298 14.9161 6.97298 12C6.97298 9.08393 9.39225 6.72262 12.3799 6.72262C15.3676 6.72262 17.7868 9.08393 17.7868 12C17.7868 14.9161 15.3676 17.2774 12.3799 17.2774ZM40.5192 17.2774C37.5345 17.2774 35.1123 14.9161 35.1123 12C35.1123 9.08393 37.5316 6.72262 40.5192 6.72262C43.5069 6.72262 45.9262 9.08393 45.9262 12C45.9262 14.9161 43.5069 17.2774 40.5192 17.2774Z" fill="black" fill-opacity="0.95"/>
<path d="M40.5165 9.56757C39.1378 9.56757 38.0215 10.6572 38.0215 12.0028C38.0215 13.3485 39.1378 14.4381 40.5165 14.4381C41.8952 14.4381 43.0116 13.3485 43.0116 12.0028C43.0116 10.6572 41.8952 9.56757 40.5165 9.56757Z" fill="black" fill-opacity="0.95"/>
<path d="M12.3798 9.56757C11.0011 9.56757 9.88477 10.6572 9.88477 12.0028C9.88477 13.3485 11.0011 14.4381 12.3798 14.4381C13.7585 14.4381 14.8749 13.3485 14.8749 12.0028C14.8749 10.6572 13.7585 9.56757 12.3798 9.56757Z" fill="black" fill-opacity="0.95"/>
</g>
<defs>
<clipPath id="clip0_348_175097">
<rect width="52.7693" height="48" fill="white" transform="translate(0.0649414)"/>
</clipPath>
</defs>
</svg>
