<svg width="37" height="37" viewBox="0 0 37 37" fill="none" xmlns="http://www.w3.org/2000/svg">
<ellipse cx="18.5" cy="18.0595" rx="18.5" ry="18.0595" fill="#2C6AA9"/>
<path d="M28.24 15.5048C27.7061 15.389 27.1722 15.6786 27.0536 16.1998C26.8756 16.7789 25.8671 16.7789 25.7484 16.1998C25.6298 15.6786 25.0958 15.389 24.5619 15.5048C24.3246 15.5628 24.0873 15.7365 23.9687 15.9102C23.85 16.1419 23.7907 16.3735 23.85 16.6052C24.028 17.4159 24.6212 18.053 25.3925 18.3425C25.1552 21.9331 22.0703 24.7129 18.4515 24.7129C14.7733 24.7129 11.7478 21.9331 11.4512 18.4005C12.2224 18.1109 12.7563 17.4739 12.9936 16.6631C13.1123 16.1419 12.8156 15.6207 12.2817 15.5048C12.0444 15.4469 11.7478 15.5048 11.5698 15.6207C11.3325 15.7365 11.2139 15.9681 11.1545 16.1998C10.9766 16.7789 9.96805 16.7789 9.8494 16.1998C9.73075 15.6786 9.19683 15.389 8.6629 15.5048C8.4256 15.5628 8.18831 15.7365 8.06966 15.9102C7.95101 16.1419 7.89168 16.3735 7.95101 16.6052C8.12898 17.4159 8.78155 18.053 9.55277 18.3425C9.8494 22.8597 13.8242 26.5082 18.5108 26.5082C23.1974 26.5082 27.1722 22.8597 27.4688 18.3425C28.24 18.053 28.8333 17.4159 29.0706 16.6052C29.0706 16.1419 28.774 15.6207 28.24 15.5048Z" fill="#F7CA00"/>
</svg>
