<svg version="1.1" id="Layer_1" xmlns="http://www.w3.org/2000/svg" x="0" y="0" viewBox="0 0 141.73 141.73" style="enable-background:new 0 0 141.73 141.73" xml:space="preserve"><style>.st0{fill:#1d1d1b}</style><path class="st0" d="m106.94 65.82.32-21.89c.03-2.09-1.64-3.8-3.72-3.83a3.77 3.77 0 0 0-3.83 3.72l-.29 19.97c-10.36 1.97-16.78 8.99-16.78 19.01v9.26l-17.84.13h-2.04L54.9 78.58c7.22-3.37 14.54-7.4 20.05-12.11.84-.72 1.32-1.77 1.32-2.87V29.48c0-2.09-1.69-3.78-3.78-3.78s-3.78 1.69-3.78 3.78v32.33c-9.06 7.14-23.21 12.78-32.73 16.57-10.26 4.09-12.42 9.97-12.42 14.18 0 6.98 7.95 7.09 14.34 7.18 2.38.03 5.35.04 8.54.04 3.39 0 7.01-.01 10.4-.02 2.95-.01 5.71-.02 7.99-.02l34.39-.24c4.35 0 8.29-2.03 10.83-5.56 2.53-3.53 3.18-7.9 1.78-12.01-2.6-7.63-4.41-14.3-4.89-16.11zM38.01 92.19c-3.92-.05-5.85-.26-6.8-.46.61-2.95 4.37-5.05 7.57-6.32 2.75-1.1 5.88-2.35 9.17-3.74l6.09 10.55c-5.79.01-11.87.02-16.03-.03zm65.88-2.65c-1.09 1.53-2.8 2.4-4.71 2.4l-8.99.06v-9.2c0-7.77 5.71-10.55 10.4-11.53.89 3.16 2.29 7.87 4.06 13.09.61 1.78.33 3.66-.76 5.18z"/><path class="st0" d="M70.87 0C31.73 0 0 31.73 0 70.87s31.73 70.87 70.87 70.87 70.87-31.73 70.87-70.87S110 0 70.87 0zm0 134.17c-34.91 0-63.31-28.4-63.31-63.31 0-34.91 28.4-63.31 63.31-63.31 34.91 0 63.31 28.4 63.31 63.31-.01 34.91-28.41 63.31-63.31 63.31z"/></svg>